<?xml version="1.0" encoding="utf-8"?>
<svg viewBox="0 137.247 810.513 156.146" xmlns="http://www.w3.org/2000/svg">
  <g fill="none" fill-rule="evenodd" transform="matrix(1.038097, 0, 0, 0.621222, 61.532764, 157.229309)" style="">
    <path fill="#FCCA75" d="M143 97c0 27.062636-21.939575 49-49.0014249 49-1.8280602 0-3.6304736-.098316-5.4058155-.296374-9.5606283-1.045857-18.2934284-4.847422-25.3876706-10.58539-2.3922944-1.936405-4.6036349-4.096514-6.5955513-6.441857-5.2590576-6.203902-9.0049433-13.737212-10.6577494-22.024281C45.3277117 103.533048 45 100.308558 45 97.0071243V97c0-7.2554596 1.5758653-14.1418767 4.405583-20.3358051C57.1310266 59.7523627 74.1919744 48 93.9985751 48 121.060425 48 143 69.9373637 143 97z"/>
    <path fill="#FA0" d="M90 145c-9.6411269-1.047562-18.4474555-4.855322-25.6014299-10.602642l-3.2041302-9.239669c-.99716.862026-2.1523706 1.812539-3.4469544 2.787314C52.4441477 121.73099 48.6667224 114.185403 47 105.884829h4.2702576l2.0819664-1.275914C56.1339261 102.903415 59.3179406 102 62.5623017 102c2.0129982 0 4.0058809.343954 5.9154274 1.0233 5.0504562 1.791131 8.9500116 5.707358 10.6971964 10.742507L90 145z"/>
    <path fill="#FA0" d="M98.9389044 95.4401573C98.3055865 102.032512 92.9244921 107 86.4214003 107c-.410042 0-.8271048-.018578-1.2371465-.061451-3.2382054-.322972-6.1688799-1.873526-8.2893005-4.37299l-21.6311015-2.153626c-1.5854007-.161487-3.1202483-.7288319-4.4402453-1.6463022L46 95.403001v-.0071453C46 88.1189711 47.5531031 81.2122187 50.3419479 75l9.2034692 6.4122902 20.0414876 1.9978562c1.9673572-1.2876026 4.3068416-2.0307252 6.8162401-2.0307252.4100416 0 .8271048.0228653 1.2371461.0628796 6.9089209.6873883 11.9782716 6.965345 11.2986135 13.9978565z"/>
    <path fill="#F3B141" d="M94 138c-23.1586656 0-42-18.616717-42-41.4992966C52 73.6167173 70.8413344 55 94 55c23.158666 0 42 18.6167173 42 41.5007034C136 119.383283 117.158666 138 94 138z"/>
    <path fill="#B69FD4" d="M131 95.000719C131 115.989196 114.21065 133 93.4985807 133c-3.32097 0-6.5369184-.43717-9.6024296-1.258302-14.061613-3.761963-24.8888278-15.594316-27.3596865-30.309977-.0681224-.382524-.1263107-.769362-.1731448-1.1562C56.1234721 98.5527258 56 96.7896649 56 95.000719c0-4.962743.936684-9.7011484 2.6440034-14.0455261C64.1562466 66.9211714 77.6828141 57 93.4985807 57 114.21065 57 131 74.0122423 131 95.000719z"/>
    <path fill="#9E7FC6" d="M86 134c-13.8767508-3.650742-24.5616247-15.133274-27-29.413872C60.4341737 104.200958 61.9187672 104 63.4173668 104c1.9621848 0 3.9047619.336326 5.7661064 1.000605 4.9229693 1.751407 8.7240896 5.580778 10.4271708 10.504256L86 134zM99.9386302 95.2689648C99.3024696 101.958947 93.8972217 107 87.3649404 107c-.4118825 0-.8308173-.018853-1.2426995-.062361-3.2527403-.327755-6.1965693-1.901271-8.3265077-4.437751l-19.434631-1.956381C58.1227184 98.8061135 58 97.0281124 58 95.2240071c0-5.004797.9309665-9.7833554 2.6278646-14.1645471l19.8719031 2.0013387C82.4759556 81.7541276 84.8259409 81 87.3466029 81c.4118822 0 .8308174.0232039 1.2426991.0638108 6.9399321.697568 12.032037 7.0684964 11.3493282 14.205154z"/>
    <path fill="#B69FD4" d="M15.7068049 18.4770352c-.9342415-.4587924-1.7700708-1.1841213-2.3902023-2.1672474-1.1081481-1.7579757-1.2726176-3.9092017-.6201314-5.7560228-.7805569-.304405-1.4842711-.86369462-1.9884651-1.66184795-1.26857323-2.01286-.78594935-4.75541852 1.0757934-6.12596939 1.8630904-1.37200727 4.4029332-.85058636 5.6715064 1.16227364.5028456.79669657.7266324 1.70991181.7023665 2.60564925 1.8307358.02184735 3.6223764.97293098 4.7318726 2.73236304.6201314.98312641.9382858 2.08859711.9908623 3.19552461 1.907578.3218828 3.6911301 1.460853 4.8639876 3.3207824 2.2486506 3.5683847 1.3952959 8.4301264-1.9062304 10.8609977-3.3028739 2.4294141-7.8028715 1.5074601-10.0528701-2.0609243-1.1715091-1.8599297-1.4991004-4.0708714-1.0784895-6.1055788z"/>
    <path fill="#F4A58C" d="M52 54.4992665C52 62.5081197 45.9555297 69 38.4999998 69 31.0444703 69 25 62.5081197 25 54.4992665 25 46.4918807 31.0444703 40 38.4999998 40 45.9555297 40 52 46.4918807 52 54.4992665z"/>
    <path fill="#4159A5" d="M28.5000002 185C31.538146 185 34 182.343114 34 179.067481v-58.134962C34 117.656886 31.538146 115 28.5000002 115 25.4618543 115 23 117.656886 23 120.932519v58.134962C23 182.343114 25.4618543 185 28.5000002 185z"/>
    <path fill="#FF4E61" d="M21 78.7283828v36.8245622C21 124.637971 28.0013703 132 36.6348867 132 43.4649572 132 49 126.176413 49 118.990289V78.7283828C49 70.5920865 42.7345341 64 35.0013707 64c-3.8672672 0-7.3658968 1.6480214-9.8983948 4.3125395C22.5663666 70.9770575 21 74.6580722 21 78.7283828z"/>
    <path fill="#5C73BC" d="M87.6785826 155.200975L74.134649 115.76563c-1.289224-3.751825-4.1666012-6.668649-7.8925998-8.003515-3.7288319-1.333445-7.7976789-.903164-11.1652447 1.181499l-6.1301884 3.795847v-1.873072H20v5.421827c0 8.947862 7.2380707 16.198739 16.1634665 16.198739 12.7831496 0 25.0803612-13.534688 25.0803612-13.534688.4122683-.255612.7990354-.201649 1.0512134-.110765.2521777.089465.5851092.293955.7423663.752637l13.5453501 39.436765c.8372872 2.43684 3.1125545 3.967676 5.5479125 3.969096.6332782 0 1.2764732-.103665 1.9097513-.322356 3.0643859-1.057952 4.6936246-4.405057 3.6381613-7.476669z"/>
    <path fill="#FF4E61" d="M46 40.0484515L26.3703163 48l-3.6639772-8.8655196-2.2532013-5.453837c-1.2679669-3.0660875.2163768-6.5677392 3.3134466-7.8230215l8.4098368-3.4088263c3.0970699-1.2552823 6.6355486.2127838 7.9035155 3.2802993l2.2647414 5.4724019L46 40.0484515z"/>
    <path fill="#5C73BC" d="M47 39.4264219L26.7735943 47 23 38.5558957 43.2338369 31z"/>
    <path stroke="#4159A5" stroke-linecap="round" stroke-linejoin="round" stroke-width="15.00015" d="M49 114l-6 2"/>
    <path fill="#F5F6E3" d="M45.5650736 87l-28.9486524 24.813947c-.3921367.334595-.6164212.814365-.6164212 1.31764v5.094968c0 1.531947 1.8970151 2.3394 3.0893419 1.317641L51 92.191752 45.5650736 87z"/>
    <path fill="#FF4E61" d="M85.2841045 99.9753905l-30.5819233-2.9494607c-.8732051-.0846667-1.7097325-.3844708-2.4334067-.8716524L33.2656341 83.3529238c-2.3727478-1.5989547-2.9793359-4.788536-1.3542436-7.1231211 1.6236813-2.3345851 4.865402-2.9328049 7.2395604-1.3324623L57.0495367 86.954736l29.2502504 2.8217663c2.8636607.2762084 4.955685 2.7829028 4.6749615 5.5991176-.2807235 2.8162144-2.828394 4.8745911-5.6906441 4.5997706z"/>
    <path stroke="#5C73BC" stroke-linecap="round" stroke-width="15.00015" d="M94 92l20-9"/>
    <path fill="#F4A58C" d="M94 96.0006789C94 100.419248 90.4181943 104 86 104s-8-3.580752-8-7.9993211C78 91.5807522 81.5818057 88 86 88s8 3.5807522 8 8.0006789z"/>
    <path fill="#FF4E61" d="M68.8867217 36c-.7383152 0-1.4766303-.2811796-2.0420202-.8450424-1.1262687-1.1277251-1.1262687-2.9561437 0-4.0823657l3.2269331-3.2267978c1.1277722-1.1277255 2.9547637-1.1277255 4.0825359 0 1.1277727 1.1277255 1.1277727 2.9561442 0 4.0823657l-3.2254291 3.2267978C70.3648551 35.7188204 69.6265404 36 68.8867217 36zM8.88640598 73c-.73833053 0-1.47666106-.2812148-2.04055914-.8451483-1.12779579-1.1278664-1.12779579-2.9565142 0-4.082877l3.22549636-3.2272026c1.1277962-1.1263628 2.9563294-1.1263628 4.0841256 0 1.1262921 1.1278668 1.1262921 2.9565146-.001504 4.0843811l-3.2254964 3.2256985C10.3645703 72.7187852 9.62623976 73 8.88640598 73z"/>
    <path fill="#5C73BC" d="M2.88659398 148c-.73833053 0-1.47816469-.28118-2.04055876-.845042-1.12779617-1.127726-1.12779617-2.956144-.00150401-4.08387l3.22700041-3.225294c1.12779579-1.127725 2.956329-1.127725 4.08262154 0 1.12779579 1.127725 1.12779579 2.954641 0 4.082366l-3.2254964 3.226798C4.36475868 147.71882 3.62492451 148 2.88659398 148z"/>
    <path fill="#95D6A4" d="M62.8874872 19c-.7382223 0-1.4779483-.2811796-2.041764-.8450424-1.1276309-1.1277251-1.1276309-2.9561438 0-4.0823654l3.225025-3.2267983c1.1276314-1.12772519 2.9558973-1.12772519 4.0835283 0 1.1276313 1.1277255 1.1276313 2.9561442 0 4.0823658l-3.2265284 3.2267979C64.3654358 18.7188204 63.6257098 19 62.8874872 19z"/>
    <path fill="#000" fill-rule="nonzero" d="M143.612015 104.54553c.23446-1.495177-.790586-2.896193-2.28741-3.128745-1.496824-.233978-2.902152.788964-3.136611 2.282714-3.546915 22.664493-22.834072 39.114298-45.8582845 39.114298-2.7777738 0-5.5512586-.248245-8.2646987-.733321l-2.2530989-6.528561c3.4096706.913085 6.9294228 1.375335 10.5177976 1.375335 22.3437085 0 40.5214705-18.14044 40.5214705-40.4382725 0-9.2749512-3.226678-18.3358973-9.085307-25.5150318-5.772852-7.0749856-13.845979-12.0413144-22.729709-13.983048-1.4839569-.3252863-2.9436108.6120529-3.2681369 2.088683-.3245264 1.4780574.6133118 2.9389942 2.0944099 3.2614273 15.933241 3.4839915 27.498959 17.8451139 27.498959 34.1479695 0 19.2775165-15.714508 34.9597595-35.0316865 34.9597595-4.408983 0-8.6964475-.804657-12.7566005-2.389716l-4.9994207-14.490951c-1.5725945-4.559721-5.085199-8.106487-9.6371451-9.727214-2.225936-.79467-4.5519462-1.071449-6.8293489-.853164-.2644817-1.206985-.4617706-2.43109-.5975857-3.663756l17.9475917 1.756263c.0729113.094162.144393.189751.2215929.281059 1.8942615 2.301261 4.5719609 3.727957 7.5413054 4.017576.3674152.035668.7334008.054215 1.0965274.054215 5.6727771 0 10.5421013-4.311476 11.1068057-10.0596338.0814889-.8346175.0657629-1.6563944-.0343111-2.4567707l17.7903324-7.7212789c1.389602-.6034926 2.027217-2.2170855 1.422483-3.6038344-.604734-1.3867482-2.221647-2.0230548-3.611249-1.4195623l-17.6030503 7.6385304c-1.8099134-2.5238252-4.6577391-4.2900751-7.9902098-4.6167884-2.7920699-.2739256-5.4483248.5136106-7.5713276 2.027335l-18.3793405-1.79621c4.5162055-12.193971 15.7531078-21.1507685 28.8099308-22.6587865 1.505402-.1740567 2.5847734-1.5336983 2.4103586-3.0360091-.1744149-1.5037375-1.5368538-2.5823197-3.0422555-2.406836-8.0831358.9330591-15.6187223 4.2429938-21.7918706 9.5717036-5.2781989 4.5554403-9.2397071 10.3064521-11.5914509 16.7708119l-4.9422355-3.375563c0-.0684814-.002859-.1341096-.0042889-.2011641.0014299-.0057067.0042889-.0099869.0057185-.0142671 7.1452976-17.5626279 24.0349621-28.9091417 43.0290442-28.9091417 23.9949325 0 43.8525115 17.9449828 46.1928175 41.7408459.140105 1.4152825 1.333847 2.4724642 2.729167 2.4724642.088637 0 .180133-.0057068.2702-.0142668 1.509691-.1469498 2.613366-1.4880441 2.464685-2.9932085-1.252357-12.7346885-7.181039-24.5149179-16.692376-33.1706828-9.5771-8.7142589-21.994878-13.5136647-34.9644935-13.5136647-10.5335237 0-20.6753286 3.1301713-29.3303165 9.0552398-6.6177638 4.5297599-12.0303479 10.4534018-15.9146561 17.3443435-.6304677-1.1185297-1.3781646-2.1614442-2.2330844-3.1073438 5.0337319-2.9760881 8.2847138-8.4417603 8.2847138-14.4952316 0-5.8523073-2.9722037-11.1410692-7.7786241-14.1927721-.0328816-.2011641-.0857779-.3994749-.1658372-.5949322l-5.867207-14.3054811c-1.469661-3.5838604-5.0709025-5.6696902-8.7464848-5.4000444-.2316-1.5237113-.7977341-2.994635-1.685535-4.2957818-1.2309129-1.8033438-3.0065148-3.1658386-5.0365913-3.9091471-.2587632-.87884476-.6533418-1.71346185-1.1722977-2.47531771-1.1837348-1.73343576-2.9336035-2.97038094-4.9136432-3.53249936-.2030075-.59635876-.4875042-1.16561056-.8492008-1.69634148C14.726461-.13401118 10.3160484-.96862826 7.0936595 1.22277683 5.53107217 2.28423868 4.47743397 3.88784501 4.12574448 5.74112324c-.35168913 1.85327823.04003004 3.7308102 1.10367576 5.29018886.36169663.5293043.78772659 1.0015404 1.26951263 1.4081491-.20014876 2.0444553.31308898 4.1231513 1.49539419 5.8565871.52038581.7604289 1.15514213 1.4338294 1.87853577 1.9959478-.0514671 2.1571644.57042267 4.3057684 1.80133517 6.1076856.7334011 1.0757286 1.6483652 1.9831077 2.6977144 2.7050157-.4188819 1.7605427-.2802078 3.6009807.4203118 5.3087358l5.5426806 13.5150914c-.6247488 1.7805166-.9464158 3.6437818-.9464158 5.5569811 0 4.0760704 1.4782386 7.946697 4.0744492 10.9641592-1.3638682.7661357-2.6333808 1.7191686-3.7713677 2.8548187-3.2795741 3.2671337-5.0851986 7.6157032-5.0851986 12.2439051v27.1685723l-1.6212017 1.45095c-.9664308.864578-1.5196982 2.104377-1.5196982 3.399817v5.258801c0 1.826171 1.0379125 3.424071 2.7091514 4.168806.3931484.174057.7963046.285339 1.2023199.348114.0300222.099868.0629038.198311.0943555.296753-.0471778.20259-.0757704.412315-.0757704.630599v15.38977c0 1.512298 1.2280534 2.739257 2.7448922 2.739257 1.5168388 0 2.7448922-1.226959 2.7448922-2.739257v-7.609996c1.8385061 1.659247 3.9943901 2.966101 6.3532816 3.819265v44.481529c0 1.747702-1.4253423 3.170118-3.1766406 3.170118-1.7512987 0-3.176641-1.422416-3.176641-3.170118v-28.208634c0-1.512298-1.229483-2.739256-2.7448922-2.739256-1.5168388 0-2.7448922 1.226958-2.7448922 2.739256v28.208634c0 4.769444 3.8871677 8.648631 8.6664254 8.648631 4.7792573 0 8.666425-3.880613 8.666425-8.648631v-43.37584c.3102299.015694.6218897.024254.9335495.024254 6.6063264 0 12.9624671-3.11733 17.8832584-6.461506 3.8214044 4.843633 8.4219583 8.923984 13.7101643 12.154024l6.5977488 19.127713c1.2051793 3.489699 4.49762 5.83376 8.1946468 5.835187.9592827 0 1.9085579-.15979 2.8206625-.473663 2.1887657-.751869 3.9543605-2.308395 4.967969-4.385664 1.0150381-2.075843 1.1594311-4.422758.4060153-6.607029l-2.1644616-6.273183c2.0701062.248246 4.160227.378075 6.2517777.378075 12.4520885 0 24.4953035-4.468412 33.9079955-12.579179 9.314049-8.028019 15.485767-19.097753 17.37431-31.169028zM16.9538268 114.779221v-2.804885l22.4123304-20.0650529 1.7784614 1.215545-24.1907918 21.6543929zm26.8627727-16.6866372v9.7072402H32.9728458l10.8437537-9.7072402zm5.4897843.5949322c.8077416.502197 1.702691.8560176 2.6333811 1.0457681.1544002 1.9303199.446045 3.8435189.8735045 5.7239049-.5132374.245391-1.0178975.516464-1.5082608.82035l-1.9986248 1.231239v-8.821262zm3.9872417-4.2800881c-.4231709-.0413741-.8320452-.1897505-1.1837344-.4294354L32.8527568 80.8181483c-.5589859-.3809279-.9349791-.9558865-1.0593567-1.6207267-.124378-.6634135.0171555-1.3353874.4002967-1.8932257.3817117-.5564116.9592824-.9316324 1.6240612-1.055755.6647785-.1241227 1.338135.0171203 1.8971206.3994749L53.854041 89.0416242c.3817117.2610851.8234677.4208751 1.2838091.4665294l18.7281706 1.831878c-.341682.9002449-.5747116 1.8575581-.6719269 2.8605255-.0714814.7247615-.0714814 1.4438163-.0042886 2.1528842l-19.8961797-1.9460134zm31.0101335-4.7865653c.1844227 0 .3702746.0085604.5575564.0271073 1.5096907.1469498 2.8706997.873138 3.8342711 2.0416021.9621421 1.1698908 1.4110462 2.6436677 1.2637941 4.1502587-.1486817 1.506591-.8749344 2.8648056-2.0472321 3.8263986-1.1708678.9601667-2.6491068 1.4095757-4.1573679 1.2611997-1.5096907-.148376-2.8721293-.873138-3.8342711-2.0430288-.9635717-1.1698911-1.4110462-2.643668-1.2637941-4.1488324.2859263-2.9233001 2.7634773-5.1147052 5.6470436-5.1147052zM24.6995692 44.1064062l-1.5525795-3.7835979 14.3778023-5.8551605 1.5468613 3.7693307-14.3720841 5.8694277zm9.5442188-17.6382431l1.2023202 2.9290069-14.3792322 5.8551605-1.1951718-2.9147401c-.3302449-.8046562-.3259559-1.6892081.0100075-2.4910111.337393-.801803.9664308-1.4252694 1.7727429-1.7534093l8.3347505-3.4055235c.4045858-.1640702.8206086-.2425382 1.2323424-.2425382 1.2852387 0 2.5061437.7632821 3.0222405 2.0230548zM12.5319768 15.2115316c-.6233189-.9130854-.759134-2.0801229-.3616967-3.1201843.2630522-.6876676.237319-1.4509501-.0700518-2.11864346-.3073709-.66912071-.8706454-1.18558449-1.562587-1.43525639-.2215929-.07846837-.5361118-.24681832-.77057137-.59207894-.49179318-.7190548-.30451139-1.70490148.41745237-2.19568491.7219637-.49078343 1.7084095-.30245992 2.2002027.41659487.2358891.34526062.2759188.69765463.2702002.93163278-.0228741.73617515.2530447 1.44809656.7648529 1.97882712.5103783.53073128 1.2123274.83319048 1.9500171.84032423 1.1151125.01141357 2.1530247.5649716 2.7763439 1.4780571.3516895.5150372.5461194 1.0971291.579001 1.727729.0657628 1.2954396 1.0336232 2.3668884 2.3174323 2.5680528 1.3624386.2125776 2.5390253.9544596 3.3124557 2.087256.5961562.873138.887801 1.9060659.8506308 2.943274l-5.6298884 2.299834c-.8563493.3495404-1.6340688.8274837-2.3231509 1.4052955-.3988672-.3110195-.7491268-.6833875-1.0422011-1.1113959-.7734309-1.1342235-1.0336236-2.4981449-.7334008-3.8420927.2830668-1.2654795-.361697-2.5566393-1.5440019-3.0916504-.5790009-.2610851-1.0493496-.6548532-1.401039-1.1698904zm12.3462966 38.2725475c0-1.3097072.2215926-2.5837466.6533414-3.797865l15.7159372-6.4187052c3.9129009 1.8960789 6.3990299 5.8209198 6.3990299 10.2165702 0 4.86218-3.1051593 9.1593885-7.6456684 10.7316073-2.4060696-1.2626259-5.1409543-1.9802537-8.0431057-1.9802537-.9106755 0-1.811343.0713346-2.6948554.2082974-2.7577587-2.148604-4.384679-5.4414188-4.384679-8.959651zm-4.7821171 26.062883c0-3.1615584 1.2337719-6.1333663 3.4754338-8.3689991 2.2388025-2.2342058 5.2181546-3.4640176 8.3862177-3.4640176 4.8821907 0 9.0824478 2.9589674 10.8980794 7.1734273l-4.040138-2.7606566c-1.7684539-1.2084116-3.9014642-1.6563943-6.0087406-1.2626259-2.1058469.3923412-3.9329159 1.5807789-5.1438137 3.3456021-1.2108975 1.7648229-1.6598019 3.89488-1.2666532 5.9964032.3945782 2.1015235 1.585461 3.9248408 3.3539153 5.1332524l4.9536725 3.384123-14.6079732 13.0785221V79.5469621zm35.8322799 45.6913669c1.2166163-1.007247 2.2502399-1.941733 3.0608406-2.709296l3.160915 9.162242c-2.2716841-1.940307-4.3517978-4.093191-6.2217556-6.452946zm26.9742841 33.156416c-.3717042.760429-1.0193271 1.331107-1.8213502 1.606459-.3373929.115563-.6847935.174057-1.0336235.174057-1.3552905 0-2.5618994-.860297-3.0036554-2.138617l-13.6672756-39.620775c-.3960081-1.145637-1.2795201-2.037322-2.4203661-2.443931-1.1437051-.408035-2.3946322-.278205-3.4296853.360954-.2158744.13411-.4131637.296753-.586149.485077-.1158001.126976-11.7258361 12.703301-23.2786869 12.703301-6.3275485 0-11.8273403-4.444158-13.2212306-10.501909l6.413326-5.741025h12.968186l-1.469661.884552c-1.2981053.781829-1.7169872 2.465331-.9335496 3.760771.5160972.853164 1.4224833 1.3254 2.3531734 1.3254.4832152 0 .9721493-.126976 1.4153352-.395195l6.7921782-4.087484c.004289-.002853.008578-.005706.012867-.00856.0042886-.002854.0085776-.00428.011437-.007133l6.1860146-3.812132c2.6848478-1.654968 5.9301108-1.997375 8.9008849-.937339 2.9722036 1.058608 5.2653319 3.374136 6.2918074 6.35165l13.6687052 39.620775c.2759187.79895.2230224 1.659248-.1486817 2.421104z"/>
  </g>
  <text style="fill: rgb(51, 51, 51); font-family: Arial, sans-serif; font-size: 21.8939px; font-style: italic; text-transform: capitalize; white-space: pre;" transform="matrix(5.31416, 0, 0, 4.821877, -490.549683, -758.03241)" x="140.987" y="210.947">DIY Tools</text>
  <text style="white-space: pre; fill: rgb(51, 51, 51); font-family: Arial, sans-serif; font-size: 22.5px;" x="210.61" y="157.055"> </text>
</svg>